<svg xmlns="http://www.w3.org/2000/svg" viewBox="0 0 900 420" font-family="'Segoe UI', system-ui, -apple-system, sans-serif">
  <rect width="900" height="420" rx="12" fill="#0F172A"/>
  <text x="450" y="35" text-anchor="middle" fill="#F8FAFC" font-size="18" font-weight="700">GEMM Kernel Performance (N=1024)</text>
  <text x="450" y="55" text-anchor="middle" fill="#64748B" font-size="11">GFLOPS, higher is faster. bs=16, best thread count for parallel kernels.</text>

  <!-- Y axis labels and bars -->
  <!-- Naive: 0.31 GFLOPS -->
  <text x="175" y="98" text-anchor="end" fill="#CBD5E1" font-size="12">Naive</text>
  <rect x="185" y="84" width="1" height="22" rx="3" fill="#EF4444"/>
  <text x="194" y="99" fill="#94A3B8" font-size="10">0.31</text>

  <!-- Tiled: 2.48 GFLOPS -->
  <text x="175" y="140" text-anchor="end" fill="#CBD5E1" font-size="12">Tiled</text>
  <rect x="185" y="126" width="8" height="22" rx="3" fill="#F97316"/>
  <text x="200" y="141" fill="#94A3B8" font-size="10">2.48</text>

  <!-- std::simd: 13.80 GFLOPS -->
  <text x="175" y="182" text-anchor="end" fill="#CBD5E1" font-size="12">std::simd</text>
  <rect x="185" y="168" width="47" height="22" rx="3" fill="#06B6D4"/>
  <text x="239" y="183" fill="#94A3B8" font-size="10">13.80</text>

  <!-- Parallel: 17.36 GFLOPS -->
  <text x="175" y="224" text-anchor="end" fill="#CBD5E1" font-size="12">Parallel (16t)</text>
  <rect x="185" y="210" width="59" height="22" rx="3" fill="#22C55E"/>
  <text x="251" y="225" fill="#94A3B8" font-size="10">17.36</text>

  <!-- AVX2+FMA: 33.00 GFLOPS -->
  <text x="175" y="266" text-anchor="end" fill="#CBD5E1" font-size="12">AVX2+FMA</text>
  <rect x="185" y="252" width="112" height="22" rx="3" fill="#3B82F6"/>
  <text x="304" y="267" fill="#94A3B8" font-size="10">33.00</text>

  <!-- AVX-512: 49.54 GFLOPS -->
  <text x="175" y="308" text-anchor="end" fill="#CBD5E1" font-size="12">AVX-512</text>
  <rect x="185" y="294" width="168" height="22" rx="3" fill="#1D4ED8"/>
  <text x="360" y="309" fill="#94A3B8" font-size="10">49.54</text>

  <!-- Parallel+SIMD: 177.61 GFLOPS -->
  <text x="175" y="350" text-anchor="end" fill="#CBD5E1" font-size="12">Parallel+SIMD (16t)</text>
  <rect x="185" y="336" width="603" height="22" rx="3" fill="#8B5CF6"/>
  <text x="795" y="351" fill="#E9D5FF" font-size="10" font-weight="600">177.61</text>

  <!-- X axis -->
  <line x1="185" y1="370" x2="820" y2="370" stroke="#334155" stroke-width="1"/>
  <text x="185" y="388" fill="#64748B" font-size="10" text-anchor="middle">0</text>
  <text x="355" y="388" fill="#64748B" font-size="10" text-anchor="middle">50</text>
  <text x="525" y="388" fill="#64748B" font-size="10" text-anchor="middle">100</text>
  <text x="695" y="388" fill="#64748B" font-size="10" text-anchor="middle">150</text>
  <line x1="185" y1="367" x2="185" y2="373" stroke="#334155" stroke-width="1"/>
  <line x1="355" y1="367" x2="355" y2="373" stroke="#334155" stroke-width="1"/>
  <line x1="525" y1="367" x2="525" y2="373" stroke="#334155" stroke-width="1"/>
  <line x1="695" y1="367" x2="695" y2="373" stroke="#334155" stroke-width="1"/>
  <text x="502" y="408" text-anchor="middle" fill="#94A3B8" font-size="11">GFLOPS (higher is faster)</text>

  <!-- Speedup annotation on best bar -->
  <rect x="680" y="330" width="70" height="18" rx="4" fill="#1E293B" stroke="#8B5CF6" stroke-width="1"/>
  <text x="715" y="343" text-anchor="middle" fill="#C4B5FD" font-size="10" font-weight="600">580x</text>
</svg>
